<svg width="24" height="24" viewBox="0 0 24 24" fill="none"
  xmlns="http://www.w3.org/2000/svg">
  <g clip-path="url(#clip0_1_912)">
    <path d="M17.338 20.24C16.3082 21.2394 15.172 21.0836 14.089 20.6124C12.9376 20.1317 11.885 20.1013 10.669 20.6124C9.15469 21.266 8.35099 21.076 7.43899 20.24C2.29 14.939 3.05 6.86399 8.90199 6.55999C10.3213 6.63599 11.315 7.34469 12.151 7.40359C13.3936 7.15089 14.583 6.42699 15.913 6.52199C17.5109 6.65119 18.706 7.28199 19.504 8.41628C16.217 10.3923 16.996 14.7243 20.0151 15.9403C19.4109 17.5268 18.6357 19.0943 17.3361 20.2533L17.338 20.24ZM12.037 6.50299C11.8831 4.147 13.7926 2.209 15.989 2.019C16.2911 4.73599 13.519 6.76899 12.037 6.50299Z" fill="#0F100F"/>
  </g>
  <defs>
    <clipPath id="clip0_1_912">
      <rect width="15.998" height="19" fill="white" transform="translate(4 2)"/>
    </clipPath>
  </defs>
</svg>
