<svg width="81" height="55" viewBox="0 0 81 55" fill="none" xmlns="http://www.w3.org/2000/svg">
<g clip-path="url(#clip0_475_1360)">
<path fill-rule="evenodd" clip-rule="evenodd" d="M37.9999 21H41.9999C43.9244 21 45.1671 21.0029 46.109 21.0882C47.0095 21.1699 47.3365 21.3076 47.4999 21.4019C47.956 21.6652 48.3347 22.0439 48.598 22.5C48.6924 22.6635 48.8301 22.9904 48.9117 23.891C48.9168 23.9467 48.9215 24.0035 48.926 24.0614C48.7909 24.0214 48.6479 24 48.4999 24H31.0788C31.0818 23.9632 31.0849 23.9269 31.0882 23.891C31.1698 22.9904 31.3075 22.6635 31.4019 22.5C31.6652 22.0439 32.0439 21.6652 32.4999 21.4019C32.6634 21.3076 32.9903 21.1699 33.8909 21.0882C34.8327 21.0029 36.0755 21 37.9999 21ZM31.0007 27C31 27.3116 30.9999 27.6442 30.9999 28C30.9999 29.9244 31.0028 31.1672 31.0882 32.109C31.1698 33.0096 31.3075 33.3365 31.4019 33.5C31.6652 33.9561 32.0439 34.3348 32.4999 34.5981C32.6634 34.6924 32.9903 34.8301 33.8909 34.9118C34.8327 34.9971 36.0755 35 37.9999 35H41.9999C43.9244 35 45.1671 34.9971 46.109 34.9118C47.0095 34.8301 47.3365 34.6924 47.4999 34.5981C47.956 34.3348 48.3347 33.9561 48.598 33.5C48.6924 33.3365 48.8301 33.0096 48.9117 32.109C48.9971 31.1672 48.9999 29.9244 48.9999 28C48.9999 27.6116 48.9998 27.251 48.9989 26.915C48.8428 26.97 48.6749 27 48.4999 27H31.0007ZM27.9999 28C27.9999 24.2615 27.9999 22.3923 28.8038 21C29.3304 20.0879 30.0878 19.3305 30.9999 18.8038C32.3922 18 34.2615 18 37.9999 18H41.9999C45.7384 18 47.6076 18 48.9999 18.8038C49.9121 19.3305 50.6695 20.0879 51.1961 21C51.9999 22.3923 51.9999 24.2615 51.9999 28C51.9999 31.7385 51.9999 33.6077 51.1961 35C50.6695 35.9121 49.9121 36.6695 48.9999 37.1962C47.6076 38 45.7384 38 41.9999 38H37.9999C34.2615 38 32.3922 38 30.9999 37.1962C30.0878 36.6695 29.3304 35.9121 28.8038 35C27.9999 33.6077 27.9999 31.7385 27.9999 28Z" fill="#565D59"/>
</g>
<defs>
<clipPath id="clip0_475_1360">
<rect width="24" height="24" fill="white" transform="translate(27.9999 16)"/>
</clipPath>
</defs>
</svg>
