<svg width="24" height="24" viewBox="0 0 24 24" fill="none" xmlns="http://www.w3.org/2000/svg">
<g clip-path="url(#clip0_1_7276)">
<path d="M0 4H24V20H0V4Z" fill="#F0F0F0"/>
<path d="M0 7.54688H24V9.35938H0V7.54688ZM0 11.0938H24V12.9062H0V11.0938ZM0 14.6406H24V16.4531H0V14.6406ZM0 18.1875H24V20H0V18.1875ZM0.0649375 4H24.0649V5.8125H0.0649375V4Z" fill="#D80027"/>
<path d="M0 4H11.9538V12.9062H0V4Z" fill="#0052B4"/>
<path d="M4.87209 8.31135L4.67916 7.71679L4.48588 8.31135H3.86075L4.36659 8.6786L4.17334 9.27314L4.67916 8.90585L5.18466 9.27314L4.99144 8.6786L5.49728 8.31135H4.87209ZM5.49728 10.4569H4.87209L4.67916 9.86239L4.48588 10.4569H3.86075L4.36659 10.8242L4.17334 11.4187L4.67916 11.0514L5.18466 11.4187L4.99144 10.8242L5.49728 10.4569ZM2.85525 10.4569H2.23016L2.03719 9.86239L1.84394 10.4569H1.21875L1.72459 10.8242L1.53131 11.4187L2.03716 11.0514L2.54272 11.4187L2.3495 10.8242L2.85525 10.4569ZM2.23016 8.31135L2.03719 7.71679L1.84394 8.31135H1.21875L1.72459 8.6786L1.53131 9.27314L2.03716 8.90585L2.54269 9.27314L2.34947 8.6786L2.85522 8.31135H2.23016ZM4.87209 6.16576L4.67916 5.57117L4.48588 6.16576H3.86075L4.36659 6.53307L4.17334 7.12757L4.67916 6.76029L5.18466 7.12757L4.99144 6.53307L5.49728 6.16576H4.87209ZM2.23016 6.16576L2.03719 5.57117L1.84394 6.16576H1.21875L1.72462 6.5331L1.53134 7.1276L2.03719 6.76029L2.54272 7.12757L2.3495 6.53307L2.85525 6.16576H2.23016ZM7.51409 8.31135L7.32106 7.71679L7.12787 8.31135H6.50272L7.0085 8.6786L6.81534 9.27314L7.32106 8.90585L7.82669 9.27314L7.63341 8.6786L8.13922 8.31135H7.51409ZM8.13925 10.4569H7.51406L7.32106 9.86239L7.12784 10.4569H6.50272L7.0085 10.8242L6.81531 11.4187L7.32106 11.0514L7.82666 11.4187L7.63338 10.8242L8.13925 10.4569ZM10.7812 10.4569H10.1561L9.96309 9.86239L9.76981 10.4569H9.14475L9.6505 10.8242L9.45728 11.4187L9.96309 11.0514L10.4687 11.4187L10.2754 10.8242L10.7812 10.4569ZM10.1561 8.31135L9.96309 7.71679L9.76981 8.31135H9.14475L9.6505 8.6786L9.45728 9.27314L9.96309 8.90585L10.4687 9.27314L10.2754 8.6786L10.7812 8.31135H10.1561ZM7.51409 6.16576L7.32106 5.57117L7.12787 6.16576H6.50272L7.0085 6.53307L6.81534 7.12757L7.32106 6.76029L7.82669 7.12757L7.63341 6.53307L8.13922 6.16576H7.51409ZM10.1561 6.16576L9.96309 5.57117L9.76981 6.16576H9.14475L9.6505 6.53307L9.45728 7.12757L9.96309 6.76029L10.4687 7.12757L10.2754 6.53307L10.7812 6.16576H10.1561Z" fill="#F0F0F0"/>
</g>
<defs>
<clipPath id="clip0_1_7276">
<rect y="4" width="24" height="16" rx="4" fill="white"/>
</clipPath>
</defs>
</svg>
