<svg width="30" height="52" viewBox="0 0 30 52" fill="none" xmlns="http://www.w3.org/2000/svg">
<ellipse cx="14.5385" cy="43.9979" rx="7.84524" ry="2.30742" fill="black" fill-opacity="0.5"/>
<line x1="14.5385" y1="35.6911" x2="14.5385" y2="42.1519" stroke="#331A3C" stroke-width="2.76891" stroke-linecap="round"/>
<path d="M26.5372 24.4512C26.5372 27.0249 25.1592 30.073 22.8786 32.4876C20.6036 34.8963 17.4874 36.6141 14.0772 36.6141C10.6704 36.6141 7.67244 34.8997 5.51434 32.4962C3.35104 30.0869 2.07855 27.0366 2.07855 24.4512C2.07855 23.2287 2.5209 21.5267 3.27228 19.5385C4.01889 17.5629 5.05229 15.3512 6.19516 13.1263C8.48052 8.67746 11.1873 4.20779 12.8667 1.52573C13.4424 0.606377 14.7427 0.595722 15.334 1.50595C17.0715 4.18064 19.8827 8.65464 22.2579 13.1107C23.4457 15.3391 24.5201 17.555 25.2964 19.5341C26.0779 21.5264 26.5372 23.2299 26.5372 24.4512Z" fill="#52BD87" stroke="#389466" stroke-width="0.922969"/>
<path d="M25.1528 20.0007C25.1528 22.0686 23.909 24.6122 21.8899 26.6557C19.8781 28.6919 17.1723 30.1534 14.3457 30.1534C11.5224 30.1534 8.91575 28.6951 7.00202 26.6636C5.08223 24.6256 3.9245 22.0798 3.9245 20.0007C3.9245 19.0392 4.29013 17.7019 4.9247 16.1276C5.55407 14.5662 6.42781 12.8195 7.40051 11.056C9.34545 7.52977 11.6675 3.96983 13.1689 1.74911C13.7485 0.891894 14.9701 0.881732 15.5635 1.729C17.1145 3.94344 19.5235 7.50783 21.5429 11.041C22.5528 12.808 23.4604 14.5588 24.1142 16.1236C24.7737 17.7019 25.1528 19.0405 25.1528 20.0007Z" fill="#98D8B7" stroke="#389466" stroke-width="0.922969"/>
</svg>
