<svg width="80" height="55" viewBox="0 0 80 55" fill="none" xmlns="http://www.w3.org/2000/svg">
<g clip-path="url(#clip0_475_1365)">
<path fill-rule="evenodd" clip-rule="evenodd" d="M35.7998 25.6085L38.5108 20.1865C39.0213 19.1654 40.4785 19.1654 40.9891 20.1865L43.7001 25.6085C44.9296 28.0675 43.6322 30.8901 41.2499 31.743V28C41.2499 27.1716 40.5784 26.5 39.7499 26.5C38.9215 26.5 38.2499 27.1716 38.2499 28L38.2499 31.743C35.8677 30.8901 34.5703 28.0675 35.7998 25.6085ZM38.2499 34.8518C33.6161 33.9171 30.8826 28.7346 33.1165 24.2669L35.8275 18.8449C37.4436 15.6126 42.0562 15.6126 43.6724 18.8449L46.3834 24.2669C48.6172 28.7346 45.8837 33.9171 41.2499 34.8518V39C41.2499 39.8284 40.5784 40.5 39.7499 40.5C38.9215 40.5 38.2499 39.8284 38.2499 39L38.2499 34.8518Z" fill="#565D59"/>
</g>
<defs>
<clipPath id="clip0_475_1365">
<rect width="24" height="24" fill="white" transform="translate(27.7499 16)"/>
</clipPath>
</defs>
</svg>
