<svg width="24" height="24" viewBox="0 0 24 24" fill="none"
  xmlns="http://www.w3.org/2000/svg">
  <path fill-rule="evenodd" clip-rule="evenodd" d="M1 2.25C1 1.55964 1.55964 1 2.25 1H4.20234C6.41396 1 8.27527 2.74672 8.27527 4.9845V11.317C8.27527 12.0996 8.9417 12.8015 9.84821 12.8015H18.1096C18.8158 12.8015 19.4075 12.363 19.6086 11.7666L20.749 8.38449C21.0537 7.48074 20.3721 6.45036 19.2501 6.45036H10.6067C9.91637 6.45036 9.35673 5.89072 9.35673 5.20037C9.35673 4.51001 9.91637 3.95036 10.6067 3.95036H19.2501C21.9673 3.95036 24.0053 6.55184 23.118 9.18329L21.9775 12.5654C21.4202 14.2182 19.8462 15.3015 18.1096 15.3015H9.84821C7.63659 15.3015 5.77527 13.5547 5.77527 11.317V4.9845C5.77527 4.20184 5.10885 3.5 4.20234 3.5H2.25C1.55964 3.5 1 2.94036 1 2.25ZM14.897 20.3663C14.897 18.8572 16.1202 17.6318 17.6315 17.6318C19.1429 17.6318 20.366 18.8572 20.366 20.3663C20.366 21.8754 19.1429 23.1008 17.6315 23.1008C16.1202 23.1008 14.897 21.8754 14.897 20.3663ZM9.42805 17.6318C7.91671 17.6318 6.69355 18.8572 6.69355 20.3663C6.69355 21.8754 7.91671 23.1008 9.42805 23.1008C10.9394 23.1008 12.1625 21.8754 12.1625 20.3663C12.1625 18.8572 10.9394 17.6318 9.42805 17.6318Z" fill="#0F0F0F"/>
</svg>
