<svg width="106" height="16" viewBox="0 0 106 16" fill="none"
  xmlns="http://www.w3.org/2000/svg">
  <g clip-path="url(#clip0_6_1984)">
    <path d="M68.7259 10.3205C68.1957 10.3205 67.9418 11.1256 67.5418 11.7611C66.7577 12.9695 65.4434 13.5411 64.0238 13.5411C60.9512 13.5411 58.7258 10.3415 58.7258 6.95047C58.7258 4.1324 60.2092 2.05502 62.7944 2.05502C64.4902 2.07673 66.2913 3.15752 66.9695 4.80995C67.4142 5.91244 67.6688 6.52684 68.3259 6.52684C68.8134 6.52684 69.364 5.9973 69.364 4.51327C69.364 2.86085 68.7061 0.677562 67.6898 0.677562C67.2872 0.677562 67.0116 0.995943 66.9057 1.46167C65.8887 0.783469 64.4264 0.23288 62.7312 0.23288C58.4502 0.23288 55.1006 3.6022 55.1006 8.15887C55.1006 12.632 58.5975 15.9994 62.5997 15.9994C64.1896 15.9994 65.4822 15.5547 66.4808 14.9403C66.5867 15.279 66.8833 15.4665 67.2438 15.4665C68.2819 15.4665 69.4475 13.0721 69.4475 11.4611C69.4449 10.7441 69.1923 10.3205 68.7259 10.3205Z" fill="#296B4A"/>
    <path d="M87.5658 8.83641C86.1035 8.47659 85.1076 8.26478 85.1076 7.37475C85.1076 6.69655 85.722 6.1453 86.7179 6.1453C87.7777 6.1453 88.9433 6.7597 89.6215 7.75628C89.9813 8.30687 90.2793 8.68841 90.6806 8.68841C91.0411 8.68841 91.4226 8.41278 91.4226 7.64972C91.4226 6.48473 90.5964 4.72574 89.7695 4.72574C89.4307 4.72574 89.1775 4.97965 89.1117 5.36119C88.3065 4.9586 87.2698 4.74679 86.3568 4.74679C84.0683 4.74679 82.0974 6.1032 82.0974 8.26478C82.0974 10.4474 84.1321 11.2526 86.0818 11.74C87.5652 12.1215 88.7308 12.3123 88.7308 13.372C88.7308 14.1562 87.925 14.5798 86.9291 14.5798C85.7213 14.5798 84.4498 13.8167 83.6657 12.6938C83.2841 12.1426 83.0736 11.6551 82.6059 11.6551C82.1823 11.6551 81.9277 12.0156 81.9277 12.8208C81.9277 14.0923 82.7329 15.9783 83.6867 15.9783C84.111 15.9783 84.3445 15.6816 84.386 15.279C85.2549 15.7665 86.3594 15.9783 87.3106 15.9783C89.8103 15.9783 91.7397 14.6436 91.7397 12.5031C91.7403 10.0659 89.4307 9.3028 87.5658 8.83641Z" fill="#296B4A"/>
    <path d="M103.99 14.0923C103.672 14.0265 103.672 13.52 103.672 12.2912V8.7522C103.672 5.99727 102.21 4.76782 100.239 4.76782C98.4379 4.76782 97.0387 5.76375 96.3394 7.28988V4.65862C96.3394 3.36602 96.3605 2.30628 96.3605 1.5669C96.3605 0.528868 96.2335 -0.000671387 95.4284 -0.000671387C94.7048 -0.000671387 92.9701 0.338101 91.9742 0.867641C91.6348 1.05841 91.5078 1.27023 91.5078 1.54585C91.5078 1.88528 91.8466 2.16025 92.7156 2.26944C93.076 2.31154 93.1609 3.32852 93.1609 4.15539V12.2912C93.1609 13.2444 93.1398 14.0502 92.8215 14.0923C92.2294 14.1772 91.8255 14.3679 91.8255 14.8554C91.8255 15.5546 92.9063 15.8086 94.7502 15.8086C96.4881 15.8086 97.6748 15.5967 97.6748 14.8554C97.6748 14.3679 97.2933 14.2193 96.6572 14.0923C96.3395 14.0265 96.3394 13.52 96.3394 12.2912V10.4895C96.3394 7.88322 97.484 6.95044 98.6497 6.95044C99.9423 6.95044 100.492 7.81942 100.492 10.0238V12.2912C100.492 13.2444 100.471 14.0502 100.153 14.0923C99.5608 14.1772 99.1569 14.3679 99.1569 14.8554C99.1569 15.5546 100.238 15.8086 102.082 15.8086C103.819 15.8086 105.005 15.5967 105.005 14.8554C105.007 14.3679 104.626 14.2193 103.99 14.0923Z" fill="#296B4A"/>
    <path d="M16.7541 8.86206C16.6784 8.84101 16.5975 8.82194 16.5127 8.80418C15.9062 8.67722 15.076 8.62459 14.0656 8.62459C11.8402 8.62459 10.4838 8.87917 10.4838 9.62052C10.4838 10.1718 11.0758 10.4046 12.0099 10.4684C12.6881 10.5112 12.921 10.9348 12.921 11.4644C12.921 12.8418 11.7369 13.8805 9.8694 13.8805C6.79675 13.8805 4.67728 10.6572 4.67728 7.20503C4.67728 4.19553 6.22446 2.07409 8.87347 2.07409C10.7594 2.07409 12.3915 3.17592 13.0907 4.7652C13.4722 5.61312 13.938 6.22752 14.4682 6.22752C15.1036 6.22752 15.5279 5.61312 15.5279 4.38564C15.5279 2.69046 14.8701 0.676889 13.8748 0.676889C13.4722 0.676889 13.1756 0.973563 13.0697 1.43995C12.052 0.761747 10.5897 0.232208 8.83071 0.232208C4.55032 0.232208 0.990234 3.47457 0.990234 8.1582C0.990234 12.7142 4.35956 15.9987 9.04319 15.9987C12.4125 15.9987 14.8497 14.4094 15.7397 11.7821C15.945 11.2059 16.0311 10.5323 16.3844 10.452L16.4179 10.4467C16.5186 10.4349 16.6153 10.4204 16.7061 10.4027C17.0639 10.2875 17.3205 9.98298 17.3205 9.62447C17.3231 9.28175 17.0896 8.98639 16.7541 8.86206Z" fill="#296B4A"/>
    <path d="M24.0363 4.72574C20.3913 4.72574 17.8271 7.05637 17.8271 10.4264C17.8271 13.6687 20.1157 15.9993 23.5278 15.9993C27.0878 15.9993 29.7158 13.7108 29.7158 10.2987C29.7132 7.05637 27.4062 4.72574 24.0363 4.72574ZM24.4605 14.5377C22.3838 14.5377 20.9636 11.3802 20.9636 9.06994C20.9636 7.14123 21.9595 6.16635 23.0831 6.16635C25.117 6.16635 26.5794 9.32385 26.5794 11.6551C26.5794 13.499 25.6472 14.5377 24.4605 14.5377Z" fill="#296B4A"/>
    <path d="M36.5607 4.72574C32.9157 4.72574 30.3516 7.05637 30.3516 10.4264C30.3516 13.6687 32.6401 15.9993 36.0522 15.9993C39.6123 15.9993 42.2402 13.7108 42.2402 10.2987C42.2402 7.05637 39.93 4.72574 36.5607 4.72574ZM36.9843 14.5377C34.9076 14.5377 33.488 11.3802 33.488 9.06994C33.488 7.14123 34.4839 6.16635 35.6068 6.16635C37.6414 6.16635 39.1038 9.32385 39.1038 11.6551C39.1038 13.499 38.171 14.5377 36.9843 14.5377Z" fill="#296B4A"/>
    <path d="M81.3142 14.0516C80.2123 13.797 80.1301 13.1398 80.1301 12.059V8.2628C80.1301 5.99532 78.7948 4.74481 76.4214 4.74481C73.8783 4.74481 70.8905 6.29199 70.8905 7.54183C70.8905 8.11413 71.3358 8.55947 72.0134 8.55947C72.8823 8.55947 73.3698 7.98718 73.7513 7.45698C74.3236 6.73667 74.8959 6.16437 75.5932 6.16437C76.8647 6.16437 76.9496 7.52079 76.9496 8.53842V9.72249C76.2714 9.53172 75.4662 9.36201 74.6604 9.36201C72.0114 9.36201 70.1465 10.7605 70.1465 12.88C70.1465 14.7449 71.5878 15.9526 73.5586 15.9526C75.1478 15.9526 76.3345 15.2744 77.0127 14.045C77.4153 15.2738 78.2422 15.8033 79.344 15.8033C80.7215 15.8033 81.4846 14.9561 81.4846 14.2778C81.4897 14.2256 81.4751 14.1734 81.4435 14.1315C81.4119 14.0896 81.3658 14.061 81.3142 14.0516ZM76.991 11.8051C76.991 13.2036 75.9313 14.0726 74.9354 14.0726C73.8546 14.0726 73.325 13.3734 73.325 12.4195C73.325 11.4025 74.0664 10.7664 75.3597 10.7664C75.9333 10.7675 76.4964 10.9212 76.991 11.2118V11.8051Z" fill="#296B4A"/>
    <path d="M54.4872 13.6049C54.1484 13.5628 54.1063 12.5452 54.1063 11.7189V4.61982C54.1063 3.3042 54.1273 2.30958 54.1273 1.56757C54.1273 0.529539 54.0004 0 53.1946 0C52.471 0 50.6515 0.359823 49.6345 0.868313C49.253 1.05908 49.1049 1.24985 49.1049 1.56757C49.1049 1.907 49.5075 2.22538 50.289 2.30958C50.7337 2.35168 50.9245 3.36932 50.9245 4.19554V5.78481C50.2489 5.17107 49.2503 4.74678 47.9814 4.74678C44.9509 4.74678 42.832 6.97217 42.832 10.5112C42.832 13.7345 44.6542 15.9572 47.1736 15.9572C47.9931 15.9623 48.796 15.7258 49.4819 15.2773C50.1679 14.8287 50.7064 14.188 51.0304 13.4352C51.0093 13.7746 51.0093 14.0713 51.0093 14.3042C51.0093 15.3428 51.1363 15.8724 51.9421 15.8724C52.5999 15.8724 54.1879 15.5119 55.0996 15.0034C55.4384 14.8126 55.5653 14.6008 55.5653 14.3252C55.5653 13.9858 55.293 13.7108 54.4872 13.6049ZM48.5116 13.9437C47.1552 13.9437 46.1803 12.6938 46.1803 10.0869C46.1803 7.56551 47.0493 6.14529 48.6386 6.14529C49.9542 6.14529 50.9481 7.18398 50.9698 9.89483C50.9909 12.757 49.8252 13.9437 48.5116 13.9437Z" fill="#296B4A"/>
  </g>
  <defs>
    <clipPath id="clip0_6_1984">
      <rect width="104.014" height="16" fill="white" transform="translate(0.993164)"/>
    </clipPath>
  </defs>
</svg>
