<svg width="106" height="16" viewBox="0 0 106 16" fill="none"
  xmlns="http://www.w3.org/2000/svg">
  <g clip-path="url(#clip0_0_547)">
    <path d="M68.7264 10.3205C68.1962 10.3205 67.9423 11.1256 67.5423 11.7611C66.7582 12.9695 65.4439 13.5411 64.0243 13.5411C60.9517 13.5411 58.7263 10.3415 58.7263 6.9505C58.7263 4.13243 60.2097 2.05505 62.7949 2.05505C64.4907 2.07676 66.2918 3.15755 66.97 4.80998C67.4147 5.91247 67.6693 6.52687 68.3264 6.52687C68.8139 6.52687 69.3645 5.99733 69.3645 4.5133C69.3645 2.86088 68.7066 0.677593 67.6903 0.677593C67.2877 0.677593 67.0121 0.995973 66.9062 1.46171C65.8892 0.7835 64.4269 0.23291 62.7317 0.23291C58.4507 0.23291 55.1011 3.60223 55.1011 8.15891C55.1011 12.632 58.598 15.9994 62.6001 15.9994C64.1901 15.9994 65.4827 15.5547 66.4812 14.9403C66.5872 15.2791 66.8838 15.4666 67.2443 15.4666C68.2823 15.4666 69.448 13.0721 69.448 11.4611C69.4454 10.7441 69.1928 10.3205 68.7264 10.3205Z" fill="#1C1D18"/>
    <path d="M87.5658 8.8365C86.1035 8.47668 85.1076 8.26487 85.1076 7.37484C85.1076 6.69664 85.722 6.14539 86.7179 6.14539C87.7777 6.14539 88.9433 6.75979 89.6215 7.75638C89.9813 8.30697 90.2793 8.6885 90.6806 8.6885C91.0411 8.6885 91.4226 8.41287 91.4226 7.64981C91.4226 6.48482 90.5964 4.72583 89.7695 4.72583C89.4307 4.72583 89.1775 4.97975 89.1117 5.36128C88.3065 4.9587 87.2698 4.74688 86.3568 4.74688C84.0683 4.74688 82.0974 6.10329 82.0974 8.26487C82.0974 10.4475 84.1321 11.2527 86.0818 11.7401C87.5652 12.1216 88.7308 12.3124 88.7308 13.3721C88.7308 14.1562 87.925 14.5799 86.9291 14.5799C85.7213 14.5799 84.4498 13.8168 83.6657 12.6939C83.2841 12.1427 83.0736 11.6552 82.6059 11.6552C82.1823 11.6552 81.9277 12.0157 81.9277 12.8209C81.9277 14.0924 82.7329 15.9784 83.6867 15.9784C84.111 15.9784 84.3445 15.6817 84.386 15.2791C85.2549 15.7666 86.3594 15.9784 87.3106 15.9784C89.8103 15.9784 91.7397 14.6437 91.7397 12.5032C91.7403 10.066 89.4307 9.30289 87.5658 8.8365Z" fill="#1C1D18"/>
    <path d="M103.99 14.0923C103.672 14.0265 103.672 13.52 103.672 12.2912V8.75214C103.672 5.99721 102.21 4.76776 100.239 4.76776C98.4379 4.76776 97.0387 5.76369 96.3394 7.28982V4.65856C96.3394 3.36596 96.3605 2.30622 96.3605 1.56684C96.3605 0.528807 96.2335 -0.000732422 95.4284 -0.000732422C94.7048 -0.000732422 92.9701 0.33804 91.9742 0.86758C91.6348 1.05835 91.5078 1.27016 91.5078 1.54579C91.5078 1.88522 91.8466 2.16019 92.7156 2.26938C93.076 2.31148 93.1609 3.32846 93.1609 4.15533V12.2912C93.1609 13.2443 93.1398 14.0502 92.8215 14.0923C92.2294 14.1771 91.8255 14.3679 91.8255 14.8553C91.8255 15.5546 92.9063 15.8085 94.7502 15.8085C96.4881 15.8085 97.6748 15.5967 97.6748 14.8553C97.6748 14.3679 97.2933 14.2192 96.6572 14.0923C96.3395 14.0265 96.3394 13.52 96.3394 12.2912V10.4894C96.3394 7.88316 97.484 6.95038 98.6497 6.95038C99.9423 6.95038 100.492 7.81936 100.492 10.0237V12.2912C100.492 13.2443 100.471 14.0502 100.153 14.0923C99.5608 14.1771 99.1569 14.3679 99.1569 14.8553C99.1569 15.5546 100.238 15.8085 102.082 15.8085C103.819 15.8085 105.005 15.5967 105.005 14.8553C105.007 14.3679 104.626 14.2192 103.99 14.0923Z" fill="#1C1D18"/>
    <path d="M16.7546 8.86203C16.6789 8.84098 16.598 8.82191 16.5131 8.80414C15.9066 8.67719 15.0765 8.62456 14.0661 8.62456C11.8407 8.62456 10.4843 8.87914 10.4843 9.62049C10.4843 10.1717 11.0763 10.4046 12.0104 10.4684C12.6886 10.5112 12.9215 10.9348 12.9215 11.4643C12.9215 12.8418 11.7374 13.8805 9.86989 13.8805C6.79724 13.8805 4.67777 10.6572 4.67777 7.205C4.67777 4.1955 6.22495 2.07406 8.87396 2.07406C10.7599 2.07406 12.3919 3.17589 13.0912 4.76517C13.4727 5.61309 13.9385 6.22749 14.4687 6.22749C15.1041 6.22749 15.5284 5.61309 15.5284 4.38561C15.5284 2.69043 14.8706 0.676858 13.8753 0.676858C13.4727 0.676858 13.1761 0.973533 13.0702 1.43992C12.0525 0.761717 10.5902 0.232178 8.8312 0.232178C4.55081 0.232178 0.990723 3.47454 0.990723 8.15817C0.990723 12.7142 4.36004 15.9987 9.04368 15.9987C12.413 15.9987 14.8502 14.4094 15.7402 11.7821C15.9455 11.2058 16.0316 10.5322 16.3849 10.452L16.4184 10.4467C16.5191 10.4349 16.6158 10.4204 16.7065 10.4026C17.0644 10.2875 17.3209 9.98295 17.3209 9.62444C17.3236 9.28172 17.0901 8.98636 16.7546 8.86203Z" fill="#1C1D18"/>
    <path d="M24.0363 4.72583C20.3913 4.72583 17.8271 7.05646 17.8271 10.4264C17.8271 13.6688 20.1157 15.9994 23.5278 15.9994C27.0878 15.9994 29.7158 13.7109 29.7158 10.2988C29.7132 7.05646 27.4062 4.72583 24.0363 4.72583ZM24.4605 14.5378C22.3838 14.5378 20.9636 11.3803 20.9636 9.07003C20.9636 7.14132 21.9595 6.16644 23.0831 6.16644C25.117 6.16644 26.5794 9.32395 26.5794 11.6552C26.5794 13.4991 25.6472 14.5378 24.4605 14.5378Z" fill="#1C1D18"/>
    <path d="M36.5612 4.72583C32.9162 4.72583 30.3521 7.05646 30.3521 10.4264C30.3521 13.6688 32.6406 15.9994 36.0527 15.9994C39.6127 15.9994 42.2407 13.7109 42.2407 10.2988C42.2407 7.05646 39.9305 4.72583 36.5612 4.72583ZM36.9848 14.5378C34.9081 14.5378 33.4885 11.3803 33.4885 9.07003C33.4885 7.14132 34.4844 6.16644 35.6073 6.16644C37.6419 6.16644 39.1043 9.32395 39.1043 11.6552C39.1043 13.4991 38.1715 14.5378 36.9848 14.5378Z" fill="#1C1D18"/>
    <path d="M81.3142 14.0516C80.2123 13.797 80.1301 13.1399 80.1301 12.0591V8.26286C80.1301 5.99538 78.7948 4.74487 76.4214 4.74487C73.8783 4.74487 70.8905 6.29205 70.8905 7.5419C70.8905 8.11419 71.3358 8.55954 72.0134 8.55954C72.8823 8.55954 73.3698 7.98724 73.7513 7.45704C74.3236 6.73673 74.8959 6.16443 75.5932 6.16443C76.8647 6.16443 76.9496 7.52085 76.9496 8.53848V9.72255C76.2714 9.53178 75.4662 9.36207 74.6604 9.36207C72.0114 9.36207 70.1465 10.7606 70.1465 12.8801C70.1465 14.745 71.5878 15.9527 73.5586 15.9527C75.1478 15.9527 76.3345 15.2745 77.0127 14.045C77.4153 15.2738 78.2422 15.8034 79.344 15.8034C80.7215 15.8034 81.4846 14.9561 81.4846 14.2779C81.4897 14.2257 81.4751 14.1735 81.4435 14.1315C81.4119 14.0896 81.3658 14.0611 81.3142 14.0516ZM76.991 11.8052C76.991 13.2037 75.9313 14.0727 74.9354 14.0727C73.8546 14.0727 73.325 13.3734 73.325 12.4196C73.325 11.4026 74.0664 10.7665 75.3597 10.7665C75.9333 10.7676 76.4964 10.9213 76.991 11.2118V11.8052Z" fill="#1C1D18"/>
    <path d="M54.4872 13.6049C54.1484 13.5628 54.1063 12.5452 54.1063 11.7189V4.61982C54.1063 3.3042 54.1273 2.30958 54.1273 1.56757C54.1273 0.529539 54.0004 0 53.1946 0C52.471 0 50.6515 0.359823 49.6345 0.868313C49.253 1.05908 49.1049 1.24985 49.1049 1.56757C49.1049 1.907 49.5075 2.22538 50.289 2.30958C50.7337 2.35168 50.9245 3.36932 50.9245 4.19554V5.78481C50.2489 5.17107 49.2503 4.74678 47.9814 4.74678C44.9509 4.74678 42.832 6.97217 42.832 10.5112C42.832 13.7345 44.6542 15.9572 47.1736 15.9572C47.9931 15.9623 48.796 15.7258 49.4819 15.2773C50.1679 14.8287 50.7064 14.188 51.0304 13.4352C51.0093 13.7746 51.0093 14.0713 51.0093 14.3042C51.0093 15.3428 51.1363 15.8724 51.9421 15.8724C52.5999 15.8724 54.1879 15.5119 55.0996 15.0034C55.4384 14.8126 55.5653 14.6008 55.5653 14.3252C55.5653 13.9858 55.293 13.7108 54.4872 13.6049ZM48.5116 13.9437C47.1552 13.9437 46.1803 12.6938 46.1803 10.0869C46.1803 7.56551 47.0493 6.14529 48.6386 6.14529C49.9542 6.14529 50.9481 7.18398 50.9698 9.89483C50.9909 12.757 49.8252 13.9437 48.5116 13.9437Z" fill="#1C1D18"/>
  </g>
  <defs>
    <clipPath id="clip0_0_547">
      <rect width="104.014" height="16" fill="white" transform="translate(0.993164)"/>
    </clipPath>
  </defs>
</svg>
