<svg width="24" height="24" viewBox="0 0 24 24" fill="none"
  xmlns="http://www.w3.org/2000/svg">
  <path fill-rule="evenodd" clip-rule="evenodd" d="M9.34835 4.34835C10.0516 3.64509 11.0054 3.25 12 3.25C12.9946 3.25 13.9484 3.64509 14.6517 4.34835C15.3549 5.05161 15.75 6.00544 15.75 7V9.75H8.25V7C8.25 6.00544 8.64509 5.05161 9.34835 4.34835ZM5.75 9.75V7C5.75 5.3424 6.40848 3.75269 7.58058 2.58058C8.75269 1.40848 10.3424 0.75 12 0.75C13.6576 0.75 15.2473 1.40848 16.4194 2.58058C17.5915 3.75269 18.25 5.3424 18.25 7V9.75H19C20.7949 9.75 22.25 11.2051 22.25 13V20C22.25 21.7949 20.7949 23.25 19 23.25H5C3.20507 23.25 1.75 21.7949 1.75 20V13C1.75 11.2051 3.20507 9.75 5 9.75H5.75ZM17 12.25H7H5C4.58579 12.25 4.25 12.5858 4.25 13V20C4.25 20.4142 4.58579 20.75 5 20.75H19C19.4142 20.75 19.75 20.4142 19.75 20V13C19.75 12.5858 19.4142 12.25 19 12.25H17Z" fill="black"/>
</svg>
